<?xml version="1.0" encoding="UTF-8"?>
<svg id="Layer_1" data-name="Layer 1" xmlns="http://www.w3.org/2000/svg" viewBox="0 0 847.43 487.98">
  <defs>
    <style>
      .cls-1 {
        fill: #fdf44f;
      }

      .cls-2 {
        fill: #fff;
      }
    </style>
  </defs>
  <g>
    <path class="cls-1" d="M10.15,309.76c-3.25,0-5.76-1.69-7.52-5.08-1.75-3.38-2.63-6.46-2.63-9.21,0-.5.07-1.13.19-1.88.13-.75.19-1.5.19-2.26,2.26-12.78,6.33-24.31,12.22-34.59,5.89-10.28,12.85-19.99,20.86-29.13,8.02-9.14,16.29-18.1,24.81-26.88-4.76-4.26-9.53-9.33-14.29-15.23-4.76-5.89-7.14-12.09-7.14-18.61,0-7.01,2.63-12.65,7.89-16.92,5.26-4.26,11.9-7.45,19.92-9.59,8.02-2.13,16.41-3.57,25.19-4.32,8.77-.75,16.66-1.13,23.68-1.13,2.75,0,5.32.06,7.71.19,2.38.13,4.45.19,6.2.19,15.54-14.03,31.26-27.88,47.18-41.54,15.91-13.66,31.89-27.13,47.93-40.41l30.45-25.19c2.75-2,5.39-3.95,7.89-5.83,2.5-1.88,4.89-3.82,7.14-5.83.75-.75,1.44-1.5,2.07-2.26.62-.75,1.44-1.38,2.44-1.88,2.75-2.5,6.95-5.2,12.59-8.08C290.78,1.44,295.48,0,299.24,0,301.99,0,303.37,1,303.37,3.01c0,1-.13,1.63-.38,1.88-1.26,3.51-3.01,7.96-5.26,13.35-2.26,5.39-4.7,10.65-7.33,15.79-2.63,5.14-5.33,8.96-8.08,11.47-.5.5-1.07.88-1.69,1.13-.63.25-1.32.63-2.07,1.13-1.5,1-2.32,2.01-2.44,3.01-.13,1-.56,2.38-1.32,4.14-1.76,4.01-3.82,8.02-6.2,12.03-2.38,4.01-4.7,8.02-6.95,12.03-4.76,9.28-9.46,18.74-14.1,28.38-4.64,9.65-8.96,19.49-12.97,29.51h21.62c2.38,0,4.7.13,6.95.38.5,0,1.25.13,2.26.38,1,.25,1.5.75,1.5,1.5s-.75,1.32-2.26,1.69c-1.5.38-2.51.69-3.01.94-4.76.75-10.34,1.69-16.73,2.82-6.39,1.13-11.47,3.45-15.23,6.95-9.77,25.06-14.66,51.38-14.66,78.95v2.63c0,.75.12,1.63.38,2.63,3.01.25,6.01.43,9.02.56,3.01.12,6.14.19,9.4.19,2,0,3.95-.06,5.83-.19,1.88-.13,3.69-.19,5.45-.19,2,0,3.01.62,3.01,1.88,0,2-1.44,4.95-4.32,8.83-2.88,3.88-5.2,6.45-6.95,7.71-2.51,1.75-5.26,3.13-8.27,4.14-3.01,1-6.14,1.5-9.4,1.5-6.52,0-11.53-1.44-15.04-4.32-3.51-2.88-5.89-7.71-7.14-14.47-8.77-.75-19.05-2.13-30.83-4.14-11.78-2.01-23.94-4.51-36.47-7.52-12.53-3.01-24.31-6.58-35.34-10.71-11.03-4.14-20.18-8.83-27.44-14.1-7.52,8.02-14.98,16.48-22.37,25.38-7.4,8.89-13.85,18.23-19.36,28.01-5.51,9.77-9.27,20.3-11.28,31.58v3.38c0,1.75.19,3.63.56,5.64.38,2,.56,4.01.56,6.01,0,3.25-1.63,4.89-4.89,4.89ZM65.04,193.6c8.27-8.27,16.79-16.35,25.56-24.25,8.77-7.89,17.42-15.85,25.94-23.87-1.26-.25-2.57-.38-3.95-.38h-3.95c-3.76,0-8.78.44-15.04,1.32-6.27.88-12.47,2.44-18.61,4.7-6.14,2.26-11.34,5.14-15.6,8.65-4.26,3.51-6.39,7.89-6.39,13.16,0,4.01,1.32,7.77,3.95,11.28,2.63,3.51,5.32,6.64,8.08,9.4ZM196.61,234.2v-1.88c0-15.54,2.57-30.57,7.71-45.11,5.13-14.53,10.08-28.82,14.85-42.86-4.01,0-8.08-.06-12.22-.19-4.14-.12-8.21-.19-12.22-.19-6.77,0-14.85.25-24.25.75-9.4.5-18.55,1.69-27.44,3.57-8.9,1.88-16.11,4.95-21.62,9.21-8.02,6.27-16.16,12.72-24.44,19.36-8.27,6.64-16.04,13.6-23.31,20.86,6.51,5.77,14.97,10.71,25.38,14.85,10.4,4.14,21.49,7.71,33.27,10.71,11.78,3.01,23.31,5.39,34.59,7.14,11.28,1.76,21.17,3.01,29.7,3.76ZM222.17,136.46c2-5.26,4.07-10.53,6.2-15.79,2.13-5.26,4.19-10.4,6.2-15.41.75-1.75,2.26-5.08,4.51-9.96,2.26-4.89,4.89-10.65,7.89-17.29,3.01-6.64,5.89-13.09,8.65-19.36,2.75-6.26,5.08-11.71,6.95-16.35,1.88-4.63,2.82-7.45,2.82-8.46,0-.25-.13-.38-.38-.38-21.8,14.79-43.11,30.95-63.91,48.49-20.8,17.54-40.6,35.59-59.4,54.13l80.45.38ZM224.8,253.37c2.26,0,4.51-1.13,6.77-3.38,2.26-2.26,3.38-4.51,3.38-6.77v-.38c-1,0-2.2.06-3.57.19-1.38.12-2.7.19-3.95.19-1.76,0-3.57-.06-5.45-.19-1.88-.13-3.82-.19-5.83-.19.5,2.26,1.37,4.57,2.63,6.95,1.25,2.38,3.26,3.57,6.01,3.57Z"/>
    <path class="cls-1" d="M335.33,236.08c-6.77,0-11.22-2.7-13.35-8.08-2.13-5.39-3.2-10.84-3.2-16.35,0-3.51.43-8.02,1.32-13.53.88-5.51,2-10.9,3.38-16.16,1.38-5.26,2.82-9.4,4.32-12.41-4.76,8.27-10.4,16.29-16.92,24.06-2.51,3.01-6.08,6.83-10.71,11.47s-9.72,9.34-15.23,14.1c-5.52,4.76-10.9,8.71-16.16,11.84-5.26,3.13-10.03,4.7-14.29,4.7-3.01,0-4.95-1-5.83-3.01-.88-2-1.32-4.26-1.32-6.77,0-5.26,1.25-11.9,3.76-19.92,2.5-8.02,5.95-16.48,10.34-25.38,4.38-8.89,9.4-17.1,15.04-24.62,5.64-7.52,11.52-13.59,17.67-18.23,6.14-4.63,12.34-6.7,18.61-6.2,3.51-1.75,6.51-3.2,9.02-4.32,2.5-1.13,5.64-1.69,9.4-1.69,2.75,0,5.51.19,8.27.56,2.76.38,5.39.82,7.89,1.32,7.77-14.78,15.54-29.63,23.31-44.55,7.77-14.91,16.29-29.26,25.56-43.04-.75-1.5-1.13-3.26-1.13-5.26,0-1.25.25-2.26.75-3.01.75-1.25,2.13-3.44,4.14-6.58,2-3.13,4.01-6.2,6.01-9.21,2-3.01,3.25-4.89,3.76-5.64,1.25-1.5,3.69-2.63,7.33-3.38,3.63-.75,6.45-1.13,8.46-1.13,1.25,0,3.2.19,5.83.56,2.63.38,3.95,1.45,3.95,3.2,0,.75-.13,1.13-.38,1.13-3.76,5.52-7.71,11.03-11.84,16.54-4.14,5.52-8.08,11.15-11.84,16.92-9.77,14.29-19.17,28.76-28.19,43.42-9.02,14.66-17.42,29.76-25.19,45.3,0,4.01-1.01,7.39-3.01,10.15-2.01,2.76-4.01,5.77-6.01,9.02-.5,1-.94,2.13-1.32,3.38-.38,1.26-.82,2.51-1.32,3.76-2.51,7.02-4.89,14.73-7.14,23.12-2.26,8.4-3.38,16.48-3.38,24.25,0,3.26.43,7.14,1.32,11.65.88,4.51,3.44,6.77,7.71,6.77s8.58-1.69,12.97-5.08c4.38-3.38,8.21-6.77,11.47-10.15,3.26-3.38,5.13-5.08,5.64-5.08.25,0,.38.25.38.75,0,2.26-1.26,4.89-3.76,7.89-2.51,3.01-5.2,5.83-8.08,8.46-2.88,2.63-5.08,4.58-6.58,5.83-3.01,2.26-6.39,4.26-10.15,6.01-3.76,1.75-7.52,2.63-11.28,2.63ZM267.66,222.92c1.25,0,2.69-.56,4.32-1.69,1.63-1.13,2.94-2.07,3.95-2.82,13.53-9.77,25.38-21.99,35.53-36.65,10.15-14.66,18.61-29.51,25.37-44.55-2.51-1.5-5.51-2.26-9.02-2.26-4.51,0-8.96,1.19-13.35,3.57-4.39,2.38-8.08,5.33-11.09,8.83-4.76,5.02-9.59,11.6-14.47,19.74-4.89,8.15-9.27,16.48-13.16,25-3.89,8.52-6.95,16.29-9.21,23.31-.25.75-.44,1.5-.56,2.26-.13.75-.19,1.63-.19,2.63,0,1.76.62,2.63,1.88,2.63Z"/>
    <path class="cls-1" d="M386.08,233.07c-12.28,0-18.42-6.26-18.42-18.8,0-5.26.81-10.65,2.44-16.16,1.63-5.51,3.44-10.65,5.45-15.41,2.26-5.51,4.76-10.9,7.52-16.16,2.75-5.26,5.51-10.53,8.27-15.79,1.25-2.26,2.44-4.57,3.57-6.95,1.13-2.38,2.31-4.7,3.57-6.95,1.25-1.75,3.63-3.25,7.14-4.51,3.51-1.25,6.26-1.88,8.27-1.88.25,0,.12.13-.38.38.25,0,.38.13.38.38.5-.5,1.13-.75,1.88-.75,1,0,1.63.44,1.88,1.32.25.88.38,1.69.38,2.44,0,1.76-.69,4.39-2.07,7.89-1.38,3.51-3.01,6.83-4.89,9.96-1.88,3.14-3.7,5.08-5.45,5.83-2.26,5.26-5.2,11.03-8.83,17.29-3.64,6.27-6.95,12.59-9.96,18.98-3.01,6.39-4.51,12.59-4.51,18.61,0,7.02,3.76,10.53,11.28,10.53,3.51,0,7.33-1.13,11.47-3.38,4.14-2.26,8.2-4.95,12.22-8.08,4.01-3.13,7.45-5.83,10.34-8.08,2.88-2.26,4.7-3.38,5.45-3.38.25,0,.38.13.38.38,0,1-.38,2.07-1.13,3.2-.75,1.13-1.38,1.95-1.88,2.44-3.01,4.01-7.02,8.08-12.03,12.22-5.02,4.14-10.34,7.58-15.98,10.34-5.64,2.76-11.09,4.14-16.35,4.14ZM416.53,111.27c-.75,0-1.19-.94-1.32-2.82-.13-1.88-.19-3.07-.19-3.57,0-.75.12-2.38.38-4.89.25-2.5,1-3.88,2.26-4.14,3.51-.5,7.01-1.13,10.53-1.88,3.51-.75,7.01-1.63,10.53-2.63.5-.25,1.25-.38,2.26-.38,1.25,0,1.88.63,1.88,1.88,0,2.76-1.69,5.58-5.08,8.46-3.38,2.88-7.14,5.26-11.28,7.14-4.14,1.88-7.46,2.82-9.96,2.82Z"/>
    <path class="cls-1" d="M447.35,233.07c-12.28,0-18.42-6.26-18.42-18.8,0-7.52,1.81-15.98,5.45-25.38,3.63-9.4,7.89-18.73,12.78-28.01,4.89-9.27,8.96-17.16,12.22-23.68-3.51.25-7.58.82-12.22,1.69-4.64.88-8.59,1.32-11.84,1.32-1,0-1.94-.19-2.82-.56-.88-.38-1.32-1.06-1.32-2.07,0-1.5.75-2.5,2.26-3.01,1.75-1.25,3.57-2.38,5.45-3.38,1.88-1,3.69-2,5.45-3.01,5.01-3.25,9.83-6.83,14.47-10.71,4.63-3.88,9.08-7.95,13.35-12.22,1-2,1.94-3.82,2.82-5.45.88-1.63,2.57-2.82,5.08-3.57,2-.5,4.89-1.63,8.65-3.38,3.76-1.75,6.51-2.63,8.27-2.63,1.25,0,1.88.5,1.88,1.5,0,.75-.82,2.76-2.44,6.01-1.63,3.26-3.57,6.95-5.83,11.09-2.26,4.14-4.32,7.89-6.2,11.28s-3.07,5.45-3.57,6.2h8.08c3.88,0,8.08.13,12.59.38,4.51.25,8.39.75,11.65,1.5,3.25.75,4.89,1.76,4.89,3.01,0,1-.69,1.69-2.07,2.07-1.38.38-2.82.56-4.32.56-6.01,0-11.97.07-17.86.19-5.89.13-11.72.56-17.48,1.32-2.51,4.51-5.45,10.09-8.83,16.73-3.38,6.64-6.77,13.66-10.15,21.05-3.38,7.4-6.2,14.54-8.46,21.43-2.26,6.89-3.38,12.85-3.38,17.86,0,3.26.69,5.89,2.07,7.89,1.37,2.01,3.82,3.01,7.33,3.01s7.39-1.13,11.65-3.38c4.26-2.26,8.33-4.95,12.22-8.08,3.88-3.13,7.27-5.83,10.15-8.08,2.88-2.26,4.7-3.38,5.45-3.38.25,0,.38.13.38.38,0,1-.32,2.07-.94,3.2-.63,1.13-1.19,1.95-1.69,2.44-3.26,4.01-7.4,8.08-12.41,12.22-5.02,4.14-10.34,7.58-15.98,10.34-5.64,2.76-11.09,4.14-16.35,4.14ZM451.11,128.57c2.26-.5,4.45-.81,6.58-.94,2.13-.12,4.19-.31,6.2-.56.75-1.75,1.38-3.51,1.88-5.26.5-1.75,1-3.51,1.5-5.26-2.76,1.76-5.45,3.7-8.08,5.83-2.63,2.13-5.33,4.2-8.08,6.2Z"/>
    <path class="cls-1" d="M436.83,358.63c-6.77,0-13.78-1.19-21.05-3.57-7.27-2.38-13.4-6.14-18.42-11.28-5.01-5.14-7.52-11.72-7.52-19.74,0-7.27,2.07-13.91,6.2-19.92s9.4-11.47,15.79-16.35c6.39-4.89,13.1-9.21,20.11-12.97,7.02-3.76,13.29-6.77,18.8-9.02,14.04-5.77,29.39-10.15,46.05-13.16,16.66-3.01,32.52-5.02,47.56-6.01,4.51-11.53,9.08-23.05,13.72-34.59,4.63-11.53,8.2-23.43,10.71-35.71l1.5-7.14c-3.26,4.26-7.71,10.03-13.35,17.29-5.64,7.27-11.78,14.66-18.42,22.18-6.64,7.52-13.35,13.85-20.11,18.98-6.77,5.14-12.78,7.71-18.04,7.71-4.26,0-7.14-1.82-8.65-5.45s-2.26-7.2-2.26-10.71c0-9.52,2.13-18.61,6.39-27.25,4.26-8.65,8.52-16.98,12.78-25l-1.13.38c-1.5,0-2.26-.75-2.26-2.26,0-.25.25-.87.75-1.88,3.25-6.01,6.01-11.15,8.27-15.41,2.26-4.26,5.26-7.52,9.02-9.77,3.76-2.26,9.52-3.38,17.29-3.38,1.5,0,2.26.63,2.26,1.88,0,2.01-1.38,5.39-4.14,10.15-2.76,4.76-5.77,9.59-9.02,14.47-3.26,4.89-5.52,8.34-6.77,10.34-2.01,3.01-4.39,7.4-7.14,13.16-2.76,5.77-5.14,11.47-7.14,17.1-2.01,5.64-3.01,10.21-3.01,13.72,0,1.26.25,2.44.75,3.57.5,1.13,1.5,1.69,3.01,1.69,3.25,0,7.39-1.94,12.41-5.83,5.01-3.88,10.27-8.83,15.79-14.85,5.51-6.01,10.9-12.34,16.16-18.98,5.26-6.64,9.83-12.78,13.72-18.42,3.88-5.64,6.7-10.08,8.46-13.35,2-3.51,3.38-7.2,4.14-11.09.75-3.88,3.13-7.08,7.14-9.59,1.75-1,4.01-2.07,6.77-3.2,2.75-1.13,5.01-1.69,6.77-1.69,2.5,0,3.76,1.26,3.76,3.76,0,3.51-1.19,7.08-3.57,10.71-2.38,3.64-4.45,6.95-6.2,9.96-2.26,4.26-4.32,9.34-6.2,15.22-1.88,5.89-3.57,11.34-5.08,16.35-4.01,11.03-7.83,22.12-11.47,33.27-3.64,11.15-7.96,22.24-12.97,33.27h7.52c2,0,3.95.12,5.83.38,1.88.25,2.82,1,2.82,2.26s-1.32,2-3.95,2.26c-2.63.25-5.39.31-8.27.19-2.88-.13-4.83-.19-5.83-.19-5.02,12.03-11.34,24.37-18.98,37.03-7.65,12.65-16.54,24.31-26.69,34.96-10.15,10.65-21.43,19.23-33.83,25.75-12.41,6.51-26,9.77-40.79,9.77ZM435.32,350.74c12.28,0,23.87-3.32,34.77-9.96,10.9-6.64,20.92-15.1,30.07-25.38,9.15-10.28,17.29-21.12,24.44-32.52,7.14-11.41,12.97-21.87,17.48-31.39-14.04,1-29.07,3.2-45.11,6.58-16.04,3.38-30.32,8.33-42.86,14.85-6.26,3.01-13.22,7.14-20.86,12.41-7.64,5.26-14.29,11.34-19.92,18.23-5.64,6.89-8.46,14.34-8.46,22.37,0,8.52,3.2,14.78,9.59,18.8,6.39,4.01,13.35,6.01,20.86,6.01Z"/>
    <path class="cls-1" d="M681.55,236.08c-6.77,0-11.28-2.7-13.53-8.08-2.26-5.39-3.38-10.84-3.38-16.35,0-6.26.5-12.53,1.5-18.8,1-6.26,2.13-12.41,3.38-18.42-2.51,4.26-6.52,9.77-12.03,16.54-5.52,6.77-11.65,13.6-18.42,20.49-6.77,6.89-13.6,12.66-20.49,17.29-6.9,4.63-12.97,6.95-18.23,6.95-3.01,0-4.95-1-5.83-3.01-.88-2-1.32-4.26-1.32-6.77,0-5.26,1.25-11.9,3.76-19.92,2.5-8.02,6.01-16.48,10.53-25.38,4.51-8.89,9.59-17.1,15.23-24.62,5.64-7.52,11.52-13.59,17.67-18.23,6.14-4.63,12.34-6.7,18.61-6.2,2.75-1.5,5.76-2.88,9.02-4.14,3.25-1.25,6.51-1.88,9.77-1.88,2.5,0,5.08.19,7.71.56,2.63.38,5.2.82,7.71,1.32,1.25-.5,2.63-1,4.14-1.5,1.5-.5,3.01-.75,4.51-.75,2.75,0,4.14,1.26,4.14,3.76,0,1.26-.69,3.7-2.07,7.33-1.38,3.64-2.88,7.02-4.51,10.15-1.63,3.14-2.95,4.95-3.95,5.45-2.26,4.51-4.39,10.34-6.39,17.48-2.01,7.14-3.64,14.47-4.89,21.99-1.26,7.52-1.88,13.91-1.88,19.17,0,2.76.44,5.83,1.32,9.21.87,3.38,3.2,5.08,6.95,5.08,4.26,0,8.58-1.69,12.97-5.08,4.38-3.38,8.21-6.77,11.47-10.15,3.25-3.38,5.13-5.08,5.64-5.08s.75.25.75.75c0,2.26-1.26,4.89-3.76,7.89-2.51,3.01-5.26,5.83-8.27,8.46-3.01,2.63-5.26,4.58-6.77,5.83-3.01,2.26-6.33,4.26-9.96,6.01-3.64,1.75-7.33,2.63-11.09,2.63ZM613.51,222.92c1.25,0,2.75-.56,4.51-1.69,1.75-1.13,3.13-2.07,4.14-2.82,15.04-10.77,26.81-23.18,35.34-37.22,8.52-14.03,16.79-29.07,24.81-45.11-1-.5-2.13-.88-3.38-1.13-1.26-.25-2.51-.38-3.76-.38-4.76,0-9.46,1.26-14.1,3.76-4.64,2.51-8.46,5.52-11.47,9.02-4.76,5.02-9.59,11.6-14.47,19.74-4.89,8.15-9.34,16.54-13.35,25.19-4.01,8.65-7.02,16.35-9.02,23.12-.25.75-.51,1.5-.75,2.26-.25.75-.38,1.63-.38,2.63,0,1.76.62,2.63,1.88,2.63Z"/>
  </g>
  <g>
    <path class="cls-2" d="M469.45,341.17c-4.76-2.07-8.87-4.54-12.34-7.41-4.29-3.54-6.43-7.82-6.43-12.85,0-4.47,1.68-8.33,5.03-11.59,3.35-3.26,7.45-6.01,12.29-8.24,4.84-2.23,9.73-4.05,14.67-5.45,4.93-1.4,9.08-2.38,12.43-2.93,9.31-1.68,18.62-2.51,27.94-2.51h1.4c6.52,0,13.04.1,19.56.28,6.52.19,12.94.28,19.28.28.56-.93,1.16-1.96,1.82-3.07.65-1.12,1.35-2.05,2.1-2.79,1.3-1.49,3.49-2.65,6.57-3.49,3.07-.84,5.54-1.26,7.4-1.26.74,0,1.63.1,2.65.28,1.02.19,1.54.75,1.54,1.68,0,.75-.84,2.14-2.51,4.19-1.68,2.05-2.79,3.45-3.35,4.19,2.98-.18,7.03-.42,12.15-.7,5.12-.28,10.1-.93,14.95-1.96,4.84-1.02,8.38-2.65,10.62-4.89.37-.37.79-.74,1.26-1.12.46-.37.98-.56,1.54-.56s.84.19.84.56c0,.75-.28,1.4-.84,1.96-2.98,3.54-7.26,6.29-12.85,8.24-5.59,1.96-11.41,3.35-17.46,4.19-6.06.84-11.32,1.35-15.79,1.54-9.13,12.67-17.6,25.75-25.42,39.25-7.82,13.51-15.56,27.06-23.19,40.65h4.47c.74,0,2.19.24,4.33.7,2.14.47,3.21,1.26,3.21,2.38,0,.75-1.08,1.21-3.21,1.4-2.14.19-4.43.24-6.84.14-2.42-.09-3.91-.14-4.47-.14-5.78,10.25-11.78,20.49-18.02,30.73-6.24,10.25-12.9,20.12-19.98,29.62-6.15,8.19-13.18,15.79-21.09,22.77-7.92,6.98-16.58,12.53-25.98,16.62-9.41,4.09-19.51,6.15-30.31,6.15-6.71,0-13.6-1.26-20.68-3.77-7.08-2.52-13.04-6.29-17.88-11.32-4.84-5.03-7.26-11.46-7.26-19.28s2.19-14.25,6.57-20.4c4.38-6.15,9.97-11.69,16.76-16.62,6.8-4.93,13.83-9.22,21.1-12.85,7.26-3.63,13.78-6.57,19.56-8.8,13.78-5.4,28.12-9.45,43.03-12.15,14.9-2.7,29.71-4.33,44.42-4.89,13.59-21.98,26.63-44.42,39.12-67.34-.19-.37-.28-.74-.28-1.12,0-2.05.79-4.09,2.38-6.15,1.58-2.05,2.93-3.82,4.05-5.31-5.96-.18-11.97-.46-18.02-.84-6.05-.37-12.06-.56-18.02-.56-8.01,0-15.83.84-23.47,2.52-3.73.93-8.2,2.51-13.41,4.75-5.22,2.24-9.78,5.08-13.69,8.52-3.91,3.45-5.87,7.59-5.87,12.43,0,4.29,1.63,7.87,4.89,10.76,1.07.95,2.22,1.83,3.45,2.65M486.53,343.7c3.46,1.08,6.93,1.95,10.39,2.63,4.75.93,8.61,1.68,11.59,2.23.37,0,.88.1,1.54.28.65.19.98.56.98,1.12s-.42.93-1.26,1.12c-.84.19-1.44.28-1.82.28-.19,0-.52-.04-.98-.14-.47-.09-.89-.14-1.26-.14-3.54-.56-8.34-1.54-14.39-2.93-2.79-.64-5.6-1.39-8.43-2.23M404.58,481c9.87,0,19.23-2.51,28.08-7.54,8.84-5.03,17-11.27,24.45-18.72,7.45-7.45,13.87-14.81,19.28-22.07,5.96-8.19,11.78-16.53,17.46-25.01,5.68-8.47,11.22-16.99,16.62-25.56-13.97.56-28.18,2.38-42.61,5.45-14.44,3.07-27.99,7.59-40.65,13.55-5.03,2.42-10.53,5.4-16.48,8.94-5.96,3.54-11.69,7.64-17.18,12.29-5.5,4.66-10.01,9.78-13.55,15.37-3.54,5.59-5.31,11.64-5.31,18.16,0,8.2,3.07,14.43,9.22,18.72,6.15,4.28,13.04,6.43,20.68,6.43Z"/>
    <path class="cls-2" d="M574.48,444.04c-3.59,0-5.99-1.43-7.19-4.29-1.2-2.86-1.8-5.76-1.8-8.69,0-3.33.26-6.65.8-9.98.53-3.33,1.13-6.59,1.8-9.78-1.33,2.27-3.46,5.19-6.39,8.79-2.93,3.59-6.19,7.22-9.78,10.88-3.59,3.66-7.22,6.72-10.88,9.19-3.66,2.46-6.89,3.69-9.68,3.69-1.6,0-2.63-.53-3.1-1.6-.47-1.06-.7-2.26-.7-3.59,0-2.8.66-6.32,2-10.58,1.33-4.26,3.2-8.75,5.59-13.48,2.4-4.72,5.09-9.08,8.09-13.08,2.99-3.99,6.12-7.22,9.38-9.68,3.26-2.46,6.55-3.56,9.88-3.29,1.46-.8,3.06-1.53,4.79-2.2,1.73-.66,3.46-1,5.19-1,1.33,0,2.7.1,4.09.3,1.4.2,2.76.43,4.09.7.66-.26,1.4-.53,2.2-.8.8-.27,1.6-.4,2.4-.4,1.46,0,2.2.67,2.2,2,0,.67-.37,1.97-1.1,3.89-.73,1.93-1.53,3.73-2.4,5.39-.87,1.67-1.57,2.63-2.1,2.9-1.2,2.4-2.33,5.49-3.39,9.28-1.07,3.79-1.93,7.69-2.6,11.68-.67,3.99-1,7.39-1,10.18,0,1.47.23,3.1.7,4.89.47,1.8,1.7,2.7,3.69,2.7,2.26,0,4.56-.9,6.89-2.7,2.33-1.8,4.36-3.59,6.09-5.39,1.73-1.8,2.73-2.7,2.99-2.7s.4.14.4.4c0,1.2-.67,2.6-2,4.19-1.33,1.6-2.8,3.09-4.39,4.49-1.6,1.4-2.8,2.43-3.59,3.1-1.6,1.2-3.36,2.26-5.29,3.19-1.93.93-3.89,1.4-5.89,1.4ZM538.33,437.05c.66,0,1.46-.3,2.4-.9.93-.6,1.66-1.1,2.2-1.5,7.99-5.72,14.24-12.31,18.77-19.77,4.52-7.45,8.92-15.44,13.18-23.96-.53-.26-1.13-.46-1.8-.6-.67-.13-1.33-.2-2-.2-2.53,0-5.03.67-7.49,2-2.47,1.33-4.49,2.93-6.09,4.79-2.53,2.66-5.09,6.16-7.69,10.48-2.6,4.33-4.96,8.79-7.09,13.38-2.13,4.59-3.73,8.68-4.79,12.28-.13.4-.27.8-.4,1.2-.13.4-.2.87-.2,1.4,0,.93.33,1.4,1,1.4Z"/>
    <path class="cls-2" d="M638.57,444.04c-3.59,0-5.96-1.43-7.09-4.29-1.13-2.86-1.7-5.76-1.7-8.69,0-1.86.23-4.26.7-7.19.47-2.93,1.06-5.79,1.8-8.59.73-2.8,1.5-4.99,2.3-6.59-2.53,4.39-5.53,8.65-8.98,12.78-1.33,1.6-3.23,3.63-5.69,6.09-2.46,2.47-5.16,4.96-8.09,7.49-2.93,2.53-5.79,4.63-8.59,6.29s-5.33,2.5-7.59,2.5c-1.6,0-2.63-.53-3.1-1.6-.47-1.06-.7-2.26-.7-3.59,0-2.8.66-6.32,2-10.58,1.33-4.26,3.16-8.75,5.49-13.48,2.33-4.72,4.99-9.08,7.99-13.08,3-3.99,6.12-7.22,9.38-9.68,3.26-2.46,6.56-3.56,9.88-3.29,1.86-.93,3.46-1.7,4.79-2.3,1.33-.6,2.99-.9,4.99-.9,1.46,0,2.93.1,4.39.3,1.46.2,2.86.43,4.19.7,4.12-7.85,8.25-15.74,12.38-23.66,4.13-7.92,8.65-15.54,13.58-22.86-.4-.8-.6-1.73-.6-2.8,0-.66.13-1.2.4-1.6.4-.66,1.13-1.83,2.2-3.49,1.06-1.66,2.13-3.29,3.19-4.89,1.06-1.6,1.73-2.6,2-2.99.66-.8,1.96-1.4,3.89-1.8,1.93-.4,3.43-.6,4.49-.6.66,0,1.7.1,3.1.3,1.4.2,2.1.77,2.1,1.7,0,.4-.07.6-.2.6-2,2.93-4.09,5.86-6.29,8.79-2.2,2.93-4.29,5.92-6.29,8.98-5.19,7.59-10.18,15.28-14.98,23.06-4.79,7.79-9.25,15.81-13.38,24.06,0,2.13-.53,3.93-1.6,5.39-1.07,1.47-2.13,3.06-3.2,4.79-.27.53-.5,1.13-.7,1.8-.2.67-.43,1.33-.7,2-1.33,3.73-2.6,7.82-3.79,12.28-1.2,4.46-1.8,8.75-1.8,12.88,0,1.73.23,3.79.7,6.19.47,2.4,1.83,3.59,4.09,3.59s4.56-.9,6.89-2.7c2.33-1.8,4.36-3.59,6.09-5.39,1.73-1.8,2.73-2.7,2.99-2.7.13,0,.2.14.2.4,0,1.2-.67,2.6-2,4.19-1.33,1.6-2.76,3.09-4.29,4.49-1.53,1.4-2.7,2.43-3.49,3.1-1.6,1.2-3.39,2.26-5.39,3.19-2,.93-3.99,1.4-5.99,1.4ZM602.63,437.05c.66,0,1.43-.3,2.3-.9.86-.6,1.56-1.1,2.1-1.5,7.19-5.19,13.48-11.68,18.87-19.47,5.39-7.79,9.88-15.67,13.48-23.66-1.33-.8-2.93-1.2-4.79-1.2-2.4,0-4.76.63-7.09,1.9-2.33,1.27-4.29,2.83-5.89,4.69-2.53,2.66-5.09,6.16-7.69,10.48-2.59,4.33-4.93,8.75-6.99,13.28-2.07,4.53-3.69,8.65-4.89,12.38-.14.4-.23.8-.3,1.2-.07.4-.1.87-.1,1.4,0,.93.33,1.4,1,1.4Z"/>
    <path class="cls-2" d="M653.15,446.83c-.13,0-.2-.07-.2-.2,0-.67.5-2.13,1.5-4.39s1.63-3.66,1.9-4.19c4.92-11.05,9.65-22.19,14.18-33.45,4.52-11.25,9.42-22.36,14.68-33.34,5.26-10.98,11.28-21.47,18.07-31.45-.27-1.06-.4-2-.4-2.8,0-.66.07-1.2.2-1.6l7.39-11.38c.8-.8,2.16-1.4,4.09-1.8,1.93-.4,3.43-.6,4.49-.6.53,0,1.53.1,2.99.3,1.46.2,2.2.77,2.2,1.7,0,.4-.07.6-.2.6-2.13,2.93-4.26,5.92-6.39,8.98-2.13,3.06-4.26,6.13-6.39,9.19-17.97,26.89-32.35,55.38-43.13,85.46,5.99-5.72,11.65-11.78,16.97-18.17,5.32-6.39,10.91-12.44,16.77-18.17.27-.26.56-.43.9-.5.33-.07.63-.17.9-.3.66-.4,1.5-.93,2.5-1.6,1-.66,1.83-1,2.5-1v.2h.2c.13-.13.47-.2,1-.2.66,0,1.06.4,1.2,1.2.13.8.2,1.47.2,2,0,1.33-.43,3.39-1.3,6.19-.87,2.8-1.9,4.53-3.1,5.19-1.33,4.66-2.56,8.89-3.69,12.68-1.13,3.79-1.7,8.29-1.7,13.48,0,1.33.2,3.06.6,5.19.4,2.13,1.6,3.2,3.59,3.2,1.86,0,3.79-.6,5.79-1.8,2-1.2,3.92-2.63,5.79-4.29,1.86-1.66,3.46-3.09,4.79-4.29,1.33-1.2,2.2-1.8,2.6-1.8.26,0,.4.2.4.6s-.13.87-.4,1.4c-.27.53-.53.93-.8,1.2-2.13,3.33-5.19,6.52-9.18,9.59-3.99,3.06-8.06,4.59-12.18,4.59s-6.66-1.36-7.99-4.09c-1.33-2.73-2-5.76-2-9.09,0-4.92.77-10.11,2.3-15.57,1.53-5.46,3.16-10.45,4.89-14.98-.8.8-2.4,2.53-4.79,5.19-2.4,2.66-5.19,5.72-8.39,9.19-3.19,3.46-6.32,6.89-9.38,10.28-3.06,3.4-5.62,6.29-7.69,8.69-2.07,2.4-3.16,3.86-3.29,4.39-.13.8-.2,1.63-.2,2.5s-.27,1.7-.8,2.5c-.27.4-1.27,1.03-3,1.9-1.73.86-3.49,1.66-5.29,2.4-1.8.73-3.03,1.1-3.69,1.1Z"/>
    <path class="cls-2" d="M763.17,444.04c-3.59,0-5.99-1.43-7.19-4.29-1.2-2.86-1.8-5.76-1.8-8.69,0-3.33.26-6.65.8-9.98.53-3.33,1.13-6.59,1.8-9.78-1.33,2.27-3.46,5.19-6.39,8.79-2.93,3.59-6.19,7.22-9.78,10.88-3.59,3.66-7.22,6.72-10.88,9.19-3.66,2.46-6.89,3.69-9.68,3.69-1.6,0-2.63-.53-3.1-1.6-.47-1.06-.7-2.26-.7-3.59,0-2.8.66-6.32,2-10.58,1.33-4.26,3.2-8.75,5.59-13.48,2.4-4.72,5.09-9.08,8.09-13.08,2.99-3.99,6.12-7.22,9.38-9.68,3.26-2.46,6.55-3.56,9.88-3.29,1.46-.8,3.06-1.53,4.79-2.2,1.73-.66,3.46-1,5.19-1,1.33,0,2.7.1,4.09.3,1.4.2,2.76.43,4.09.7.66-.26,1.4-.53,2.2-.8.8-.27,1.6-.4,2.4-.4,1.46,0,2.2.67,2.2,2,0,.67-.37,1.97-1.1,3.89-.73,1.93-1.53,3.73-2.4,5.39-.87,1.67-1.57,2.63-2.1,2.9-1.2,2.4-2.33,5.49-3.39,9.28-1.07,3.79-1.93,7.69-2.6,11.68-.67,3.99-1,7.39-1,10.18,0,1.47.23,3.1.7,4.89.47,1.8,1.7,2.7,3.69,2.7,2.26,0,4.56-.9,6.89-2.7,2.33-1.8,4.36-3.59,6.09-5.39,1.73-1.8,2.73-2.7,2.99-2.7s.4.14.4.4c0,1.2-.67,2.6-2,4.19-1.33,1.6-2.8,3.09-4.39,4.49-1.6,1.4-2.8,2.43-3.59,3.1-1.6,1.2-3.36,2.26-5.29,3.19-1.93.93-3.89,1.4-5.89,1.4ZM727.03,437.05c.66,0,1.46-.3,2.4-.9.93-.6,1.66-1.1,2.2-1.5,7.99-5.72,14.24-12.31,18.77-19.77,4.52-7.45,8.92-15.44,13.18-23.96-.53-.26-1.13-.46-1.8-.6-.67-.13-1.33-.2-2-.2-2.53,0-5.03.67-7.49,2-2.47,1.33-4.49,2.93-6.09,4.79-2.53,2.66-5.09,6.16-7.69,10.48-2.6,4.33-4.96,8.79-7.09,13.38-2.13,4.59-3.73,8.68-4.79,12.28-.13.4-.27.8-.4,1.2-.13.4-.2.87-.2,1.4,0,.93.33,1.4,1,1.4Z"/>
    <path class="cls-2" d="M784.93,445.04c-.13,0-.33-.03-.6-.1-.27-.07-.4-.17-.4-.3v-.6c.4-1.07.83-2.2,1.3-3.39.46-1.2.83-2.4,1.1-3.59,1.33-4.79,2.26-9.65,2.8-14.58.53-4.92.8-9.85.8-14.78,0-4.26-.2-8.45-.6-12.58,0-.8-.1-1.63-.3-2.5-.2-.86-.3-1.7-.3-2.5,0-.66.43-1.06,1.3-1.2.86-.13,1.56-.2,2.1-.2.8,0,2.1.14,3.89.4,1.8.27,2.9.87,3.29,1.8.27.4.43,1.27.5,2.6.07,1.33.13,2.66.2,3.99.07,1.33.1,2.2.1,2.6,0,8.65-1,17.11-3,25.36,2.26-3.33,5.09-7.55,8.49-12.68,3.39-5.12,7.15-10.31,11.28-15.57,4.13-5.26,8.42-9.78,12.88-13.58,4.46-3.79,8.75-6.09,12.88-6.89h1.6c.66,0,1.36.13,2.1.4.73.27,1.1.87,1.1,1.8,0,1.47-.8,2.4-2.4,2.8-.4.13-.83.2-1.3.2s-.9.07-1.3.2c-1.87.53-3.69,1.43-5.49,2.7-1.8,1.27-3.43,2.56-4.89,3.89-6.26,5.33-12.05,11.45-17.37,18.37-5.33,6.92-10.32,13.78-14.98,20.57-.93,1.33-1.9,2.66-2.89,3.99-1,1.33-1.83,2.73-2.5,4.19-.4.53-.7,1.2-.9,2-.2.8-.43,1.53-.7,2.2-.53,1.2-1.6,2.33-3.19,3.39-1.6,1.06-3.13,1.6-4.59,1.6Z"/>
  </g>
</svg>