<?xml version="1.0" encoding="UTF-8"?>
<svg id="Layer_1" xmlns="http://www.w3.org/2000/svg" version="1.1" viewBox="0 0 960.72 510.48">
  <!-- Generator: Adobe Illustrator 30.2.1, SVG Export Plug-In . SVG Version: 2.1.1 Build 1)  -->
  <defs>
    <style>
      .st0 {
        fill: #285e2b;
      }
    </style>
  </defs>
  <path class="st0" d="M519.78,509.48l.09.63c-34.01.29-68,.26-101.95-.11-.42.29-.8.26-1.12-.09l-156.44-306.83c-52.3,102.68-104.47,204.94-156.52,306.8l-1.12.09c-31.95.27-63.9.29-95.85.07l-6.36-.51c-.15-.87,0-1.87.45-3C86.28,339,172.25,170.3,258.85.42l1.25-.42h.48l206.23,404.99,52.98,104.48Z"/>
  <path class="st0" d="M887.78,0h72.94v403.97c-.18,2.26-.34,4.49-.48,6.72,1.08,26.03-7.75,54.18-26.49,72.86-18.57,18.51-46.39,27.15-71.88,26.45-1.84.34-3.93.39-5.76,0-98.45.29-197.03.37-295.74.24.01-4.13-.11-8.21-.37-12.24l-.12-47.48c-.01-4.37-.61-8.49.01-12.59l277.28-.07c7.98,0,15.44-1.61,22.72-4.08,19.72-7.62,26.72-24.08,28.03-44.36l-.14-389.42Z"/>
  <path class="st0" d="M856.11,510c.42.14.41.3,0,.48h-296.09l-.03-12.47c.21-.07.48.15.49.51l.09,11.49h295.54Z"/>
  <path class="st0" d="M102.7,509.97v.51H0v-.96h.48c33.92.45,68.12.21,102.21.45Z"/>
  <path class="st0" d="M520.19,510.48h-102.21c-.05-.14,0-.34-.06-.48h100.3c.88,0,1.33,0,1.57-.52.16.32.41.61.41,1Z"/>
  <path class="st0" d="M960.72,410.69h-.48v-5.78c-.02-.5.12-.97.48-.93v6.72Z"/>
  <path class="st0" d="M861.86,510v.48h-5.76v-.48c1.91,0,3.85-.12,5.76,0Z"/>
  <polygon class="st0" points="559.71 44.52 513.89 125.03 496.8 125.05 496.79 12.38 559.62 12.35 559.71 44.52"/>
</svg>