<?xml version="1.0" encoding="UTF-8"?>
<svg id="Layer_1" xmlns="http://www.w3.org/2000/svg" version="1.1" viewBox="0 0 830.29 344.06">
  <!-- Generator: Adobe Illustrator 30.2.1, SVG Export Plug-In . SVG Version: 2.1.1 Build 1)  -->
  <defs>
    <style>
      .st0 {
        fill: #11292f;
      }

      .st1 {
        fill: #285e2b;
      }
    </style>
  </defs>
  <g>
    <path class="st1" d="M94.7,244.19c-6.74,0-12.37-1.73-16.89-5.19-4.52-3.46-6.78-8.74-6.78-15.83,0-1.06.31-3.32.93-6.78.62-3.46,1.5-6.7,2.66-9.71,1.15-3.02,2.44-4.52,3.86-4.52.71,0,1.06.53,1.06,1.6,0,1.24-.18,2.57-.53,3.99-.36,1.42-.53,2.83-.53,4.26,0,3.54.62,7.58,1.86,12.1,1.24,4.52,3.23,8.42,5.99,11.7,2.75,3.28,6.34,4.92,10.77,4.92,6.56,0,13.17-2.53,19.82-7.58,6.65-5.05,13.08-11.57,19.29-19.55,6.21-7.98,12.01-16.49,17.42-25.54,5.41-9.04,10.19-17.65,14.36-25.8,4.16-8.15,7.4-14.8,9.71-19.95-15.96,11.7-32.81,20.93-50.54,27.66-17.73,6.74-36.62,10.11-56.66,10.11-7.81,0-15.83-.71-24.07-2.13-8.25-1.42-15.87-3.86-22.88-7.32-7.01-3.46-12.68-8.29-17.02-14.5-4.35-6.21-6.52-14.1-6.52-23.67,0-9.04,1.86-18,5.59-26.87,3.72-8.87,8.6-17.33,14.63-25.4,6.03-8.07,12.64-15.47,19.82-22.21,7.18-6.74,14.23-12.59,21.15-17.56,6.38-4.61,13.08-8.78,20.08-12.5,7-3.72,14.14-7,21.41-9.84,9.22-3.55,18.53-6.34,27.93-8.38,9.4-2.04,18.97-3.41,28.73-4.12.35-.17.8-.27,1.33-.27h1.33c3.37,0,7.27.4,11.7,1.2,4.43.8,8.65,2.13,12.64,3.99,3.99,1.86,6.96,4.3,8.91,7.31,1.06-1.42,2.53-3.63,4.39-6.65,1.86-3.01,2.79-5.23,2.79-6.65,0-.89.35-1.86,1.06-2.93C204.2.53,204.99,0,205.88,0s1.42.4,1.6,1.2c.17.8.27,1.46.27,2,0,1.06-.58,3.02-1.73,5.85-1.16,2.84-2.44,5.63-3.86,8.38-1.42,2.75-2.39,4.75-2.93,5.99.89,1.24,1.86,3.1,2.93,5.59,1.06,2.49,1.6,4.43,1.6,5.85,0,1.06-.27,2.44-.8,4.12-.53,1.69-1.33,2.79-2.39,3.33-2.13-4.43-3.37-6.92-3.72-7.45-1.78,3.55-3.82,7.89-6.12,13.03-2.31,5.15-4.79,9.22-7.45,12.24-.71.71-1.55,1.16-2.53,1.33-.98.18-1.91.27-2.79.27-.53,0-1.73-.13-3.59-.4-1.86-.27-3.64-.67-5.32-1.2-1.69-.53-2.53-1.06-2.53-1.6,0-1.42.97-3.54,2.93-6.38,1.95-2.83,4.34-5.94,7.18-9.31,2.84-3.37,5.49-6.6,7.98-9.71,2.48-3.1,4.26-5.45,5.32-7.05-3.19-5.67-7.36-9.62-12.5-11.84-5.15-2.21-10.82-3.32-17.02-3.32h-1.6c-.53,0-1.06.09-1.6.27-17.2,1.06-33.43,4.97-48.68,11.7-6.38,2.84-12.55,6.08-18.49,9.71-5.94,3.64-11.75,7.58-17.42,11.84-6.21,4.97-12.5,10.77-18.89,17.42-6.38,6.65-12.19,13.88-17.42,21.68-5.23,7.8-9.44,15.92-12.64,24.34-3.19,8.42-4.79,16.8-4.79,25.14,0,10.47,2.61,18.8,7.85,25,5.23,6.21,11.97,10.64,20.22,13.3,8.25,2.66,16.89,3.99,25.94,3.99,12.24,0,24.87-1.91,37.91-5.72,13.03-3.81,25.62-8.87,37.77-15.16,12.14-6.29,23.1-12.99,32.85-20.08,1.95-4.79,3.86-9.66,5.72-14.63,1.86-4.96,3.86-9.84,5.99-14.63l.8-2.93c-6.03.18-13.66.36-22.88.53-9.22.18-18.75.71-28.59,1.6-9.84.89-18.98,2.35-27.4,4.39-8.42,2.04-15.03,4.92-19.82,8.64-1.24,1.24-2.26,2.44-3.06,3.59-.8,1.16-1.64,2.53-2.53,4.12-.18.53-.53,1.16-1.06,1.86-.53.71-1.24,1.06-2.13,1.06-.53,0-.8-.44-.8-1.33,0-.71.09-1.33.27-1.86,3.19-9.04,7.45-15.6,12.77-19.68,5.32-4.08,11.53-6.69,18.62-7.85,7.09-1.15,14.9-1.82,23.41-2,2.66,0,5.32-.04,7.98-.13,2.66-.09,5.32-.13,7.98-.13,6.74,0,13.47.13,20.22.4,6.74.27,13.39.84,19.95,1.73,1.6-1.6,3.72-2.7,6.38-3.32,2.66-.62,5.05-.93,7.18-.93.89,0,2,.13,3.32.4,1.33.27,2,1.02,2,2.26,0,.71-.22,1.33-.67,1.86-.44.53-.84,1.06-1.2,1.6-1.6,2.31-3.06,4.79-4.39,7.45-1.33,2.66-2.71,5.23-4.12,7.71-1.77,3.19-3.5,6.43-5.19,9.71-1.69,3.28-3.5,6.52-5.45,9.71-5.5,9.93-11.04,20.31-16.62,31.12-5.59,10.81-11.7,21.23-18.35,31.26-6.65,10.02-14.23,19.06-22.74,27.13-8.51,8.07-18.45,14.41-29.79,19.02-1.95.71-3.99,1.24-6.12,1.6-2.13.35-4.26.53-6.38.53Z"/>
    <path class="st1" d="M212.53,173.43c-1.24,0-1.77-.44-1.6-1.33,4.61-8.16,8.69-16.53,12.24-25.14,3.54-8.6,7-17.24,10.37-25.94l2.93-7.71c0-.53-.44-.71-1.33-.53-.89.18-1.33-.09-1.33-.8,0-.35.71-1.73,2.13-4.12,1.42-2.39,2.93-4.87,4.52-7.45,1.6-2.57,2.57-4.12,2.93-4.65.71-1.06,2.3-2.13,4.79-3.19,2.48-1.06,4.34-1.6,5.59-1.6,1.95,0,2.93.8,2.93,2.39,0,.53-.09,1.06-.27,1.6-.18.53-.36.98-.53,1.33-2.66,6.38-5.54,12.73-8.65,19.02-3.1,6.3-5.63,12.81-7.58,19.55,5.14-6.21,10.77-12.28,16.89-18.22,6.12-5.94,12.37-11.39,18.75-16.36,1.77-1.42,3.77-2.75,5.99-3.99,2.22-1.24,4.48-1.86,6.78-1.86,2.84,0,4.61,1.02,5.32,3.06.71,2.04,1.06,4.12,1.06,6.25,0,2.84-.89,5.85-2.66,9.04-1.78,3.19-4.35,4.79-7.71,4.79-1.42,0-2.13-.53-2.13-1.6,0-.89.09-1.64.27-2.26.17-.62.27-1.28.27-2,0-.89-.36-1.95-1.06-3.19-.71-1.24-1.51-1.86-2.39-1.86-2.31,0-5.41,1.42-9.31,4.26-3.9,2.84-7.94,6.3-12.1,10.37-4.17,4.08-7.89,8.03-11.17,11.84-3.28,3.81-5.63,6.61-7.05,8.38-1.95,2.84-3.64,5.72-5.05,8.64-1.42,2.93-2.57,5.9-3.46,8.91-.36,1.06-.71,2.17-1.06,3.33-.36,1.16-.71,2.17-1.06,3.06-.36.89-1.69,1.99-3.99,3.32-2.31,1.33-4.65,2.44-7.05,3.33-2.39.89-4.12,1.33-5.19,1.33Z"/>
    <path class="st1" d="M347.66,171.57c-4.79,0-7.98-1.91-9.58-5.72-1.6-3.81-2.39-7.67-2.39-11.57,0-4.43.35-8.86,1.06-13.3.71-4.43,1.5-8.78,2.39-13.03-1.77,3.02-4.61,6.92-8.51,11.7-3.9,4.79-8.25,9.62-13.03,14.5-4.79,4.88-9.62,8.96-14.5,12.24-4.88,3.28-9.18,4.92-12.9,4.92-2.13,0-3.5-.71-4.12-2.13-.62-1.42-.93-3.01-.93-4.79,0-3.72.89-8.42,2.66-14.1,1.77-5.67,4.26-11.66,7.45-17.96,3.19-6.29,6.78-12.1,10.77-17.42,3.99-5.32,8.15-9.62,12.5-12.9,4.34-3.28,8.73-4.74,13.17-4.39,1.95-1.06,4.08-2.04,6.38-2.93,2.3-.89,4.61-1.33,6.92-1.33,1.77,0,3.59.13,5.45.4,1.86.27,3.68.58,5.45.93.89-.35,1.86-.71,2.93-1.06,1.06-.35,2.13-.53,3.19-.53,1.95,0,2.93.89,2.93,2.66,0,.89-.49,2.62-1.46,5.19-.98,2.57-2.04,4.97-3.19,7.18-1.16,2.22-2.09,3.5-2.79,3.86-1.6,3.19-3.11,7.32-4.52,12.37-1.42,5.05-2.57,10.24-3.46,15.56-.89,5.32-1.33,9.84-1.33,13.57,0,1.95.31,4.12.93,6.52.62,2.39,2.26,3.59,4.92,3.59,3.01,0,6.07-1.2,9.18-3.59,3.1-2.39,5.81-4.79,8.11-7.18,2.3-2.39,3.63-3.59,3.99-3.59s.53.18.53.53c0,1.6-.89,3.46-2.66,5.59-1.77,2.13-3.72,4.12-5.85,5.99-2.13,1.86-3.72,3.24-4.79,4.12-2.13,1.6-4.48,3.02-7.05,4.26-2.57,1.24-5.19,1.86-7.85,1.86ZM299.52,162.26c.89,0,1.95-.4,3.19-1.2,1.24-.8,2.22-1.46,2.93-2,10.64-7.62,18.97-16.4,25-26.33,6.03-9.93,11.88-20.57,17.56-31.92-.71-.35-1.51-.62-2.39-.8-.89-.17-1.77-.27-2.66-.27-3.37,0-6.7.89-9.98,2.66-3.28,1.78-5.99,3.9-8.11,6.38-3.37,3.55-6.78,8.21-10.24,13.97-3.46,5.76-6.61,11.7-9.44,17.82-2.84,6.12-4.97,11.57-6.38,16.36-.18.53-.36,1.06-.53,1.6-.18.53-.27,1.16-.27,1.86,0,1.24.44,1.86,1.33,1.86Z"/>
    <path class="st1" d="M463.37,114.11c0,7.81-3.19,15.74-9.58,23.81-6.38,8.07-13.92,15.12-22.61,21.15-7.98,5.15-16.09,9.14-24.34,11.97-8.25,2.84-14.46,4.26-18.62,4.26s-7.58-.44-10.24-1.33c-3.9,9.04-9.31,24.21-16.23,45.49-.71,2.3-1.11,5.19-1.2,8.65-.09,3.46-1.15,8.15-3.19,14.1-2.04,5.94-4.03,10.68-5.99,14.23-.89,2.13-3.46,3.86-7.71,5.19-4.26,1.33-7.27,2-9.04,2s-2.66-.89-2.66-2.66c0-.71.27-1.69.8-2.93,8.16-16.67,18.45-41.19,30.86-73.55,12.41-32.36,19.24-50.32,20.48-53.87,1.24-3.55,3.01-8.69,5.32-15.43,3.9-11.35,6.03-19.86,6.38-25.54,0-2.13,2.83-3.19,8.51-3.19s8.51,2.04,8.51,6.12c0,3.02-1.73,7.23-5.19,12.63-3.46,5.41-8.56,16.18-15.3,32.32,10.28-15.6,18.62-25.8,25-30.59,8.51-6.92,16.76-10.37,24.74-10.37,3.19,0,6.38.53,9.58,1.6,6.92,2.49,10.73,6.48,11.44,11.97.17,1.42.27,2.75.27,3.99ZM450.34,110.39c0-6.21-2.39-9.31-7.18-9.31-2.84,0-7.45,1.69-13.83,5.05-6.38,3.37-12.77,8.42-19.15,15.16-6.38,6.74-11.31,13.08-14.76,19.02-3.46,5.94-6.7,12.06-9.71,18.35-3.02,6.3-4.79,9.97-5.32,11.04,10.81,0,22.7-4.7,35.64-14.1,12.94-9.4,22.61-19.59,28.99-30.59,3.55-5.49,5.32-10.37,5.32-14.63Z"/>
    <path class="st1" d="M460.71,175.29c-.17,0-.27-.09-.27-.27,0-.89.67-2.84,2-5.85,1.33-3.01,2.17-4.87,2.53-5.59,6.56-14.72,12.86-29.57,18.89-44.56,6.03-14.98,12.54-29.79,19.55-44.42,7-14.63,15.03-28.6,24.07-41.9-.36-1.42-.53-2.66-.53-3.72,0-.89.09-1.6.27-2.13l9.84-15.16c1.06-1.06,2.88-1.86,5.45-2.39,2.57-.53,4.56-.8,5.99-.8.71,0,2.04.13,3.99.4,1.95.27,2.93,1.02,2.93,2.26,0,.53-.09.8-.27.8-2.84,3.9-5.68,7.89-8.51,11.97-2.84,4.08-5.68,8.16-8.51,12.24-23.94,35.82-43.09,73.77-57.46,113.85,7.98-7.62,15.52-15.69,22.61-24.21,7.09-8.51,14.54-16.58,22.34-24.21.35-.35.75-.57,1.2-.66.44-.09.84-.22,1.2-.4.89-.53,2-1.24,3.33-2.13,1.33-.89,2.44-1.33,3.32-1.33v.27h.27c.17-.17.62-.27,1.33-.27.89,0,1.42.53,1.6,1.6.17,1.06.27,1.95.27,2.66,0,1.77-.58,4.52-1.73,8.25-1.16,3.72-2.53,6.03-4.12,6.92-1.77,6.21-3.42,11.84-4.92,16.89-1.51,5.05-2.26,11.04-2.26,17.96,0,1.78.27,4.08.8,6.92.53,2.84,2.13,4.26,4.79,4.26,2.48,0,5.05-.8,7.71-2.39,2.66-1.6,5.23-3.5,7.71-5.72,2.48-2.22,4.61-4.12,6.38-5.72,1.77-1.6,2.93-2.39,3.46-2.39.35,0,.53.27.53.8s-.18,1.16-.53,1.86c-.36.71-.71,1.24-1.06,1.6-2.84,4.43-6.92,8.69-12.24,12.77-5.32,4.08-10.73,6.12-16.23,6.12s-8.87-1.82-10.64-5.45c-1.78-3.63-2.66-7.67-2.66-12.1,0-6.56,1.02-13.47,3.06-20.75,2.04-7.27,4.21-13.92,6.52-19.95-1.06,1.06-3.19,3.37-6.38,6.92-3.19,3.55-6.92,7.63-11.17,12.24-4.26,4.61-8.42,9.18-12.5,13.7-4.08,4.52-7.49,8.38-10.24,11.57-2.75,3.19-4.21,5.15-4.39,5.85-.18,1.06-.27,2.17-.27,3.33s-.36,2.26-1.06,3.32c-.36.53-1.69,1.37-3.99,2.53-2.31,1.15-4.66,2.22-7.05,3.19-2.39.97-4.03,1.46-4.92,1.46Z"/>
    <path class="st1" d="M558.87,169.44c-8.69,0-13.03-4.43-13.03-13.3,0-3.72.57-7.54,1.73-11.44,1.15-3.9,2.44-7.54,3.86-10.91,1.6-3.9,3.37-7.71,5.32-11.44,1.95-3.72,3.9-7.45,5.85-11.17.89-1.6,1.73-3.23,2.53-4.92.8-1.68,1.64-3.33,2.53-4.92.89-1.24,2.57-2.3,5.05-3.19,2.48-.89,4.43-1.33,5.85-1.33.17,0,.09.09-.27.27.17,0,.27.09.27.27.35-.35.8-.53,1.33-.53.71,0,1.15.31,1.33.93.17.62.27,1.2.27,1.73,0,1.24-.49,3.1-1.46,5.59-.98,2.48-2.13,4.83-3.46,7.05-1.33,2.22-2.62,3.59-3.86,4.12-1.6,3.72-3.68,7.81-6.25,12.24-2.57,4.44-4.92,8.91-7.05,13.43-2.13,4.52-3.19,8.91-3.19,13.17,0,4.97,2.66,7.45,7.98,7.45,2.48,0,5.19-.8,8.11-2.39,2.93-1.6,5.81-3.5,8.64-5.72,2.84-2.22,5.27-4.12,7.32-5.72,2.04-1.6,3.32-2.39,3.86-2.39.17,0,.27.09.27.27,0,.71-.27,1.46-.8,2.26-.53.8-.98,1.38-1.33,1.73-2.13,2.84-4.97,5.72-8.51,8.64-3.55,2.93-7.32,5.37-11.3,7.32-3.99,1.95-7.85,2.93-11.57,2.93ZM580.41,83.26c-.53,0-.84-.67-.93-2-.09-1.33-.13-2.17-.13-2.53,0-.53.09-1.68.27-3.46.17-1.77.71-2.75,1.6-2.93,2.48-.35,4.96-.8,7.45-1.33,2.48-.53,4.96-1.15,7.45-1.86.35-.17.89-.27,1.6-.27.89,0,1.33.45,1.33,1.33,0,1.95-1.2,3.95-3.59,5.99-2.39,2.04-5.05,3.72-7.98,5.05-2.93,1.33-5.28,2-7.05,2Z"/>
    <path class="st1" d="M593.71,171.3c-3.9,0-6.48-.62-7.71-1.86-1.24-1.24-1.86-3.81-1.86-7.71,0-3.37.35-6.21,1.06-8.51,1.42-4.79,3.33-10.06,5.72-15.83,2.39-5.76,5.27-11.39,8.64-16.89,3.37-5.49,7.22-10.28,11.57-14.36,4.34-4.08,9.09-6.92,14.23-8.51,3.55-1.06,7-2.35,10.37-3.86,3.37-1.5,6.92-2.26,10.64-2.26,2.66,0,4.92.8,6.78,2.39,1.86,1.6,2.79,3.82,2.79,6.65,0,2.13-.62,4.52-1.86,7.18-1.24,2.66-2.88,4.92-4.92,6.78-2.04,1.86-4.3,2.79-6.78,2.79-.71,0-1.06-.27-1.06-.8s.17-.97.53-1.33c.89-1.6,1.46-3.33,1.73-5.19.27-1.86.4-3.68.4-5.45s-.22-3.5-.67-5.19c-.45-1.68-1.73-2.53-3.86-2.53-1.78,0-3.55.49-5.32,1.46-1.77.98-3.37,1.91-4.79,2.79-2.48,1.78-5.45,5.01-8.91,9.71-3.46,4.7-6.78,9.93-9.97,15.69-3.19,5.76-5.85,11.3-7.98,16.62-2.13,5.32-3.19,9.58-3.19,12.77,0,6.21,3.19,9.31,9.58,9.31,4.61,0,9.09-1.24,13.43-3.72,4.34-2.48,8.33-5.41,11.97-8.78,3.63-3.37,6.6-6.29,8.91-8.78,2.3-2.48,3.63-3.72,3.99-3.72.71,0,1.06.36,1.06,1.06,0,2.13-1.29,4.61-3.86,7.45-2.57,2.84-4.57,4.97-5.99,6.38-6.38,4.79-13.43,8.69-21.15,11.7-7.71,3.01-15.56,4.52-23.54,4.52Z"/>
  </g>
  <g>
    <path class="st0" d="M401.82,307.5c-4.79,0-7.18-2.5-7.18-7.51,0-2.45.44-5.12,1.34-8.01-2-.45-4.31-1.11-6.93-2-2.62-.89-5.15-2.03-7.59-3.42-2.45-1.39-4.48-3.09-6.09-5.09-1.61-2-2.42-4.28-2.42-6.84,0-2.89.94-5.62,2.84-8.18,1.89-2.56,3.84-4.73,5.84-6.51,3.34-3.11,7.4-5.9,12.18-8.35,4.78-2.45,9.76-4.56,14.94-6.34,5.17-1.78,9.93-3.23,14.27-4.34,3.01-4.56,6.09-9.1,9.26-13.6,3.17-4.51,6.31-8.98,9.43-13.44,1.78-2.34,3.53-4.7,5.26-7.09,1.72-2.39,3.53-4.64,5.43-6.76-.11-.89.31-2.06,1.25-3.51.94-1.44,2-2.86,3.17-4.26,1.17-1.39,2.03-2.42,2.59-3.09-1.67-.11-3.31-.19-4.92-.25-1.61-.06-3.26-.08-4.92-.08-4.45,0-8.9.2-13.35.58-4.45.39-8.85.97-13.19,1.75-3.56.67-7.68,1.73-12.35,3.17-4.67,1.45-9.21,3.34-13.6,5.68-4.4,2.34-8.01,5.23-10.85,8.68-2.84,3.45-4.26,7.46-4.26,12.02,0,2.78.58,5.32,1.75,7.6,1.17,2.28,2.5,4.26,4.01,5.93,1.5,1.67,2.84,3,4.01,4.01,1.17,1,1.75,1.67,1.75,2,0,.22-.22.33-.67.33s-.89-.11-1.34-.33c-.45-.22-.83-.39-1.17-.5-2.34-1.56-4.79-3.51-7.34-5.84-2.56-2.34-4.7-4.92-6.43-7.76-1.73-2.84-2.59-5.81-2.59-8.93,0-3.78,1.17-7.15,3.51-10.1,2.34-2.95,5.4-5.53,9.18-7.76,3.78-2.23,7.85-4.12,12.18-5.68,4.34-1.56,8.54-2.81,12.6-3.76,4.06-.94,7.48-1.64,10.27-2.09,4.67-.78,9.4-1.36,14.19-1.75,4.78-.39,9.57-.58,14.36-.58,4.01,0,7.9.17,11.68.5.67-1.34,2.03-2.28,4.09-2.84,2.06-.56,3.7-.83,4.92-.83.56,0,1.34.08,2.34.25,1,.17,1.5.64,1.5,1.42,0,.45-.33,1-1,1.67l-1.5,1.5c5.23.89,10.74,2.31,16.52,4.26,5.78,1.95,11.24,4.56,16.36,7.84,5.12,3.28,9.26,7.26,12.44,11.93,3.17,4.67,4.76,10.13,4.76,16.36,0,5.45-1.25,10.6-3.76,15.44-2.5,4.84-5.84,9.32-10.02,13.44-4.17,4.12-8.76,7.87-13.77,11.27-5.01,3.4-10.04,6.4-15.11,9.01-5.06,2.62-9.76,4.87-14.1,6.76-7.79,3.23-16.11,5.81-24.95,7.76-8.85,1.95-17.5,2.92-25.95,2.92-2.9,0-5.84-.17-8.85-.5-.11,1-.25,1.97-.42,2.92-.17.94-.25,1.86-.25,2.75s.17,1.92.5,3.09c.33,1.17,1.11,1.75,2.34,1.75,1.56,0,3.06-.58,4.51-1.75,1.45-1.17,2.73-2.34,3.84-3.51,1.11-1.17,1.89-1.75,2.34-1.75.22,0,.33.17.33.5,0,.11-.03.19-.08.25-.06.06-.08.14-.08.25-.22,1.22-.89,2.48-2,3.76-1.11,1.28-2.28,2.2-3.51,2.75-1.45.67-3.28,1.31-5.51,1.92-2.23.61-4.23.92-6.01.92ZM396.98,288.97c2.56-7.57,5.93-14.91,10.1-22.03,4.17-7.12,8.37-14.08,12.6-20.86-2.67,1-6.18,2.37-10.52,4.09-4.34,1.73-8.65,3.81-12.94,6.26-4.29,2.45-7.9,5.17-10.85,8.18-2.95,3-4.42,6.23-4.42,9.68,0,2.67.86,5.01,2.59,7.01,1.72,2,3.84,3.65,6.34,4.92,2.5,1.28,4.87,2.2,7.09,2.75ZM406.66,290.14h1c5.78,0,11.85-.64,18.19-1.92,6.34-1.28,12.57-2.95,18.69-5.01,6.12-2.06,11.74-4.26,16.86-6.59,3.67-1.67,7.87-3.76,12.6-6.26,4.73-2.5,9.49-5.34,14.27-8.51,4.78-3.17,9.21-6.68,13.27-10.52,4.06-3.84,7.34-7.95,9.85-12.35,2.5-4.39,3.76-9.04,3.76-13.94,0-5.45-1.5-10.21-4.51-14.27-3-4.06-6.87-7.48-11.6-10.27-4.73-2.78-9.71-5.01-14.94-6.68-5.23-1.67-10.07-2.84-14.52-3.51-6.57,7.68-12.94,15.52-19.11,23.53-6.18,8.01-12.05,16.19-17.61,24.54,6.9-1.56,13.99-2.81,21.28-3.76,7.29-.94,14.49-1.42,21.62-1.42,1,0,1.5.11,1.5.33,0,.33-.28.56-.83.67-.56.11-.89.17-1,.17-15.25,1.11-30.44,3.95-45.57,8.51-4.45,6.79-8.88,14.36-13.27,22.7-4.4,8.35-7.71,16.52-9.93,24.54Z"/>
    <path class="st0" d="M550.71,239.73c6.01,0,9.01,2.9,9.01,8.68,0,3.01-.84,5.45-2.5,7.34-2.78,4.12-7.29,7.71-13.52,10.77-6.23,3.06-11.52,4.76-15.86,5.09-1.56.11-2.39-.33-2.5-1.34-.11-.44.03-.72.42-.84.39-.11.69-.17.92-.17,2.56-.22,5.84-1.45,9.85-3.67,7.45-4.01,12.91-8.12,16.36-12.35,1.44-2,2.17-3.92,2.17-5.76s-.89-2.75-2.67-2.75c-1.45,0-3.4.61-5.84,1.84-5.23,2.45-10.74,6.71-16.52,12.77-5.79,6.07-9.57,11.99-11.35,17.78-.56,1.78-.84,3.53-.84,5.26s.72,3.37,2.17,4.92c1.45,1.56,3.67,2.34,6.68,2.34,3.34,0,7.18-.89,11.52-2.67,12.57-5.12,22.25-12.85,29.04-23.2.67-.89,1.28-1.06,1.84-.5.44.22.67.5.67.84s-.17.72-.5,1.17c-3.34,5.57-7.57,10.52-12.69,14.86-9.91,8.46-19.53,12.69-28.88,12.69-8.01,0-13.63-2.39-16.86-7.18-1.23-1.89-1.84-4.17-1.84-6.84s.72-5.84,2.17-9.51c2.78-6.34,8.73-12.85,17.86-19.53,9.12-6.68,16.36-10.02,21.7-10.02Z"/>
    <path class="st0" d="M563.56,292.14c-.45,0-1.45-.08-3-.25-1.56-.17-2.34-.7-2.34-1.59,0-.56.42-1.14,1.25-1.75.84-.61,1.47-1.09,1.92-1.42,3.11-1.78,7.01-3.09,11.68-3.92,4.67-.83,8.73-1.42,12.19-1.75.22-.44.33-.89.33-1.34,0-1.78-.84-3.39-2.5-4.84-1.67-1.45-3.59-2.89-5.76-4.34-2.17-1.44-4.09-3.09-5.76-4.92s-2.5-3.98-2.5-6.43c0-.67.11-1.31.33-1.92.22-.61.44-1.19.67-1.75,2.56-4.78,6.04-8.4,10.43-10.85,4.39-2.45,9.15-4.23,14.27-5.34.44-.22.89-.33,1.34-.33h1.34c1.56,0,2.86.42,3.92,1.25,1.06.84,1.59,2.09,1.59,3.76,0,2.12-.78,4.15-2.34,6.09-1.56,1.95-3.34,3.2-5.34,3.76h-.5c-.11,0-.17-.11-.17-.33,0-.89.19-1.78.58-2.67.39-.89.58-1.78.58-2.67,0-1.56-.58-2.64-1.75-3.25-1.17-.61-2.48-.92-3.92-.92-3.12,0-6.09.97-8.93,2.92-2.84,1.95-4.26,4.59-4.26,7.93,0,2.67.75,4.84,2.25,6.51,1.5,1.67,3.2,3.12,5.09,4.34,1.89,1.23,3.59,2.53,5.09,3.92,1.5,1.39,2.25,3.2,2.25,5.43,0,1.11-.25,2.17-.75,3.17-.5,1-1.03,1.95-1.59,2.84,1-.11,1.97-.19,2.92-.25.94-.05,1.92-.08,2.92-.08.67,0,1,.17,1,.5,0,.45-.22.78-.67,1-.45.22-.83.39-1.17.5-1.11.11-2.23.28-3.34.5-1.11.22-2.28.45-3.51.67-3.12,2.9-6.82,4.92-11.1,6.09-4.29,1.17-8.54,1.75-12.77,1.75Z"/>
    <path class="st0" d="M605.96,288.31c-5.45,0-8.18-2.78-8.18-8.35,0-2.34.36-4.73,1.09-7.18.72-2.45,1.53-4.73,2.42-6.84,1-2.45,2.11-4.84,3.34-7.18,1.22-2.34,2.45-4.67,3.67-7.01.56-1,1.09-2.03,1.59-3.09.5-1.06,1.03-2.09,1.59-3.09.56-.78,1.61-1.45,3.17-2,1.56-.56,2.78-.84,3.67-.84.11,0,.06.06-.17.17.11,0,.17.06.17.17.22-.22.5-.33.84-.33.44,0,.72.2.83.58.11.39.17.75.17,1.09,0,.78-.31,1.95-.92,3.51-.61,1.56-1.34,3.03-2.17,4.42-.84,1.39-1.64,2.25-2.42,2.59-1,2.34-2.31,4.9-3.92,7.68-1.61,2.78-3.09,5.59-4.42,8.43-1.34,2.84-2,5.59-2,8.26,0,3.12,1.67,4.67,5.01,4.67,1.56,0,3.26-.5,5.09-1.5,1.84-1,3.64-2.2,5.43-3.59,1.78-1.39,3.31-2.59,4.59-3.59,1.28-1,2.09-1.5,2.42-1.5.11,0,.17.06.17.17,0,.45-.17.92-.5,1.42-.33.5-.61.86-.84,1.09-1.34,1.78-3.12,3.59-5.34,5.43-2.23,1.84-4.59,3.37-7.09,4.59-2.5,1.23-4.92,1.84-7.26,1.84ZM619.48,234.23c-.33,0-.53-.42-.58-1.25-.06-.83-.08-1.36-.08-1.59,0-.33.06-1.06.17-2.17.11-1.11.44-1.72,1-1.84,1.56-.22,3.11-.5,4.67-.84,1.56-.33,3.11-.72,4.67-1.17.22-.11.56-.17,1-.17.56,0,.83.28.83.83,0,1.23-.75,2.48-2.25,3.76-1.5,1.28-3.17,2.34-5.01,3.17-1.84.84-3.31,1.25-4.42,1.25Z"/>
    <path class="st0" d="M595.94,344.06c-3,0-6.12-.53-9.35-1.59-3.23-1.06-5.95-2.73-8.18-5.01-2.22-2.28-3.34-5.2-3.34-8.76,0-3.23.92-6.18,2.75-8.85,1.84-2.67,4.17-5.09,7.01-7.26,2.84-2.17,5.82-4.09,8.93-5.76,3.12-1.67,5.9-3,8.35-4.01,6.23-2.56,13.05-4.51,20.45-5.84,7.4-1.34,14.44-2.23,21.11-2.67,1.22-3.12,2.42-6.23,3.59-9.35,1.17-3.11,2.31-6.23,3.42-9.35.89-2.23,1.72-4.45,2.5-6.68.78-2.22,1.45-4.45,2-6.68-1.11,1.89-2.9,4.34-5.34,7.34-2.45,3-5.17,6.04-8.18,9.1-3.01,3.06-6.04,5.62-9.1,7.68-3.06,2.06-5.76,3.09-8.1,3.09-1.34,0-2.2-.45-2.59-1.34-.39-.89-.58-1.89-.58-3,0-2.34.56-5.28,1.67-8.85,1.11-3.56,2.64-7.32,4.59-11.27,1.95-3.95,4.17-7.59,6.68-10.93,2.5-3.34,5.15-6.03,7.93-8.1,2.78-2.06,5.51-2.98,8.18-2.75,1.34-.67,2.7-1.28,4.09-1.84,1.39-.56,2.81-.83,4.26-.83.89,0,1.81.06,2.75.17.94.11,1.86.22,2.75.33l.17-.5c1.89-1.67,4.12-2.5,6.68-2.5.33,0,.81.08,1.42.25.61.17.92.53.92,1.09,0,.11-.06.22-.17.33l-2,3.51c-1.45,2.67-2.78,5.45-4.01,8.35-1.23,2.9-2.45,5.79-3.67,8.68-2.23,5.57-4.45,11.18-6.68,16.86-2.23,5.68-4.45,11.35-6.68,17.03.78-.11,1.53-.17,2.25-.17h2.25c.33,0,1.08.14,2.25.42,1.17.28,1.75.69,1.75,1.25,0,.33-.72.56-2.17.67-1.45.11-2.9.14-4.34.08-1.45-.06-2.23-.08-2.34-.08h-.5c-2.23,5.34-5.04,10.82-8.43,16.44-3.4,5.62-7.34,10.79-11.85,15.52-4.51,4.73-9.51,8.54-15.02,11.43-5.51,2.89-11.54,4.34-18.11,4.34ZM595.28,340.55c5.45,0,10.6-1.48,15.44-4.42,4.84-2.95,9.29-6.71,13.35-11.27,4.06-4.56,7.68-9.38,10.85-14.44,3.17-5.07,5.76-9.71,7.76-13.94-6.34.44-13.05,1.42-20.11,2.92-7.07,1.5-13.44,3.7-19.11,6.59-2.67,1.34-5.7,3.17-9.1,5.51-3.39,2.34-6.34,5.03-8.85,8.1-2.5,3.06-3.76,6.37-3.76,9.93,0,3.78,1.42,6.56,4.26,8.35,2.84,1.78,5.93,2.67,9.26,2.67ZM630.33,283.8c.56,0,1.22-.25,2-.75.78-.5,1.39-.92,1.84-1.25,6.68-4.78,11.88-10.29,15.61-16.52,3.73-6.23,7.43-12.91,11.1-20.03-.45-.22-.97-.39-1.59-.5-.61-.11-1.2-.17-1.75-.17-2,0-4.04.56-6.09,1.67-2.06,1.11-3.76,2.45-5.09,4.01-2.12,2.23-4.26,5.15-6.43,8.76-2.17,3.62-4.15,7.34-5.93,11.18-1.78,3.84-3.12,7.26-4.01,10.27-.33.67-.5,1.39-.5,2.17s.28,1.17.84,1.17Z"/>
    <path class="st0" d="M666.21,290.81c-.78,0-1.11-.28-1-.84,3.11-5.34,5.98-10.79,8.6-16.36,2.61-5.56,5.09-11.18,7.43-16.86,0-.22.22-.86.67-1.92.44-1.06.67-1.64.67-1.75,0-.33-.28-.44-.84-.33-.56.11-.83-.06-.83-.5,0-.22.44-1.09,1.34-2.59.89-1.5,1.84-3.06,2.84-4.67,1-1.61,1.61-2.59,1.84-2.92.56-.67,1.61-1.34,3.17-2,1.56-.67,2.73-1,3.51-1,1.11,0,1.67.5,1.67,1.5,0,.33-.39,1.45-1.17,3.34-.78,1.89-1.78,4.12-3.01,6.68-1.23,2.56-2.45,5.17-3.67,7.85-1.23,2.67-2.34,5.01-3.34,7.01-1,2-1.67,3.34-2,4.01.89-1.11,2.36-2.75,4.42-4.92,2.06-2.17,4.39-4.53,7.01-7.09,2.61-2.56,5.26-5.03,7.93-7.43,2.67-2.39,5.09-4.34,7.26-5.84s3.87-2.25,5.09-2.25c.89,0,1.42.33,1.59,1,.17.67.25,1.28.25,1.84,0,1.45-.17,2.95-.5,4.51-.33,1.56-.72,3.06-1.17,4.51-.89,3.34-1.98,7.26-3.26,11.77-1.28,4.51-1.92,8.43-1.92,11.77,0,1.67.31,3.2.92,4.59.61,1.39,1.92,2.09,3.92,2.09,1.56,0,3.2-.5,4.92-1.5,1.72-1,3.34-2.2,4.84-3.59,1.5-1.39,2.84-2.59,4.01-3.59,1.17-1,1.92-1.5,2.25-1.5.11,0,.17.11.17.33,0,.33-.08.75-.25,1.25-.17.5-.36.86-.58,1.09-1.78,2.78-4.37,5.45-7.76,8.01-3.4,2.56-6.76,3.84-10.1,3.84s-6.04-1.03-7.76-3.09c-1.73-2.06-2.59-4.76-2.59-8.1,0-2.89.53-6.12,1.59-9.68,1.06-3.56,1.97-6.79,2.75-9.68.22-.89.53-1.95.92-3.17.39-1.22.58-2.28.58-3.17,0-.22-.06-.5-.17-.84-.11-.33-.33-.5-.67-.5-.56,0-1.25.31-2.09.92-.84.61-1.48,1.08-1.92,1.42-2.12,1.78-4.48,4.06-7.09,6.84-2.62,2.78-5.2,5.82-7.76,9.1-2.56,3.28-4.9,6.48-7.01,9.6-2.12,3.12-3.78,5.9-5.01,8.35-.22.56-.92,1.2-2.09,1.92-1.17.72-2.39,1.34-3.67,1.84-1.28.5-2.25.75-2.92.75Z"/>
    <path class="st0" d="M768.03,239.73c6.01,0,9.01,2.9,9.01,8.68,0,3.01-.84,5.45-2.5,7.34-2.78,4.12-7.29,7.71-13.52,10.77-6.23,3.06-11.52,4.76-15.86,5.09-1.56.11-2.39-.33-2.5-1.34-.11-.44.03-.72.42-.84.39-.11.69-.17.92-.17,2.56-.22,5.84-1.45,9.85-3.67,7.45-4.01,12.91-8.12,16.36-12.35,1.44-2,2.17-3.92,2.17-5.76s-.89-2.75-2.67-2.75c-1.45,0-3.4.61-5.84,1.84-5.23,2.45-10.74,6.71-16.52,12.77-5.79,6.07-9.57,11.99-11.35,17.78-.56,1.78-.84,3.53-.84,5.26s.72,3.37,2.17,4.92c1.45,1.56,3.67,2.34,6.68,2.34,3.34,0,7.18-.89,11.52-2.67,12.57-5.12,22.25-12.85,29.04-23.2.67-.89,1.28-1.06,1.84-.5.44.22.67.5.67.84s-.17.72-.5,1.17c-3.34,5.57-7.57,10.52-12.69,14.86-9.91,8.46-19.53,12.69-28.88,12.69-8.01,0-13.63-2.39-16.86-7.18-1.23-1.89-1.84-4.17-1.84-6.84s.72-5.84,2.17-9.51c2.78-6.34,8.73-12.85,17.86-19.53,9.12-6.68,16.36-10.02,21.7-10.02Z"/>
    <path class="st0" d="M778.88,290.81c-.78,0-1.11-.28-1-.84,2.89-5.12,5.45-10.37,7.68-15.77,2.22-5.4,4.39-10.82,6.51-16.27l1.84-4.84c0-.33-.28-.44-.83-.33-.56.11-.84-.06-.84-.5,0-.22.44-1.09,1.34-2.59.89-1.5,1.84-3.06,2.84-4.67,1-1.61,1.61-2.59,1.84-2.92.44-.67,1.45-1.34,3-2,1.56-.67,2.73-1,3.51-1,1.22,0,1.84.5,1.84,1.5,0,.33-.06.67-.17,1-.11.33-.22.61-.33.84-1.67,4.01-3.48,7.99-5.43,11.93-1.95,3.95-3.53,8.04-4.76,12.27,3.23-3.89,6.76-7.7,10.6-11.43,3.84-3.73,7.76-7.15,11.77-10.27,1.11-.89,2.36-1.72,3.76-2.5,1.39-.78,2.81-1.17,4.26-1.17,1.78,0,2.89.64,3.34,1.92.44,1.28.67,2.59.67,3.92,0,1.78-.56,3.67-1.67,5.68-1.11,2-2.73,3-4.84,3-.89,0-1.34-.33-1.34-1,0-.56.06-1.03.17-1.42.11-.39.17-.81.17-1.25,0-.56-.22-1.22-.67-2-.45-.78-.95-1.17-1.5-1.17-1.45,0-3.4.89-5.84,2.67-2.45,1.78-4.98,3.95-7.59,6.51-2.62,2.56-4.95,5.04-7.01,7.43-2.06,2.39-3.53,4.15-4.42,5.26-1.22,1.78-2.28,3.59-3.17,5.43-.89,1.84-1.61,3.7-2.17,5.59-.22.67-.45,1.36-.67,2.09-.22.72-.45,1.36-.67,1.92-.22.56-1.06,1.25-2.5,2.09-1.45.83-2.92,1.53-4.42,2.09-1.5.56-2.59.84-3.26.84Z"/>
  </g>
</svg>